<svg width="567" height="800" viewBox="0 0 567 800" fill="none" xmlns="http://www.w3.org/2000/svg">
<path d="M208.964 0.33797C208.963 0.524097 209.113 0.675477 209.299 0.675477H534.4C546.168 0.675477 552.052 0.675478 556.497 3.07421C559.931 4.92716 562.748 7.74423 564.601 11.1783C567 15.624 567 21.5078 567 33.2755V767.41C567 779.178 567 785.061 564.601 789.507C562.748 792.941 559.931 795.758 556.497 797.611C552.052 800.01 546.168 800.01 534.4 800.01H32.6C20.8323 800.01 14.9485 800.01 10.5029 797.611C7.06875 795.758 4.25169 792.941 2.39873 789.507C0 785.061 0 779.178 0 767.41V81.292C0 69.5244 0 63.6405 2.39873 59.1949C4.25169 55.7608 7.06875 52.9437 10.5029 51.0908C14.9485 48.692 20.8323 48.692 32.6 48.692H107.681C110.766 48.692 112.309 48.692 113.816 48.4609C114.995 48.2802 116.155 47.9945 117.282 47.6071C118.724 47.1118 120.09 46.3951 122.823 44.9619L208.472 0.0388893C208.696 -0.0787397 208.965 0.0847291 208.964 0.33797Z" fill="#66AAC7"/>
<path d="M536 287C536 405.741 439.741 502 321 502C202.259 502 106 405.741 106 287C106 168.259 202.259 72 321 72C439.741 72 536 168.259 536 287Z" fill="white"/>
</svg>
